
<svg xmlns="http://www.w3.org/2000/svg" fill="none" viewBox="0 0 30 30" height="30" width="30">
<g clip-path="url(#clip0_1132_10173)">
<path fill="#FCFCFC" d="M1.09964 24.6788C0.4928 24.6788 0 24.186 0 23.5792V6.42483C0 5.818 0.4928 5.3252 1.09964 5.3252C1.70647 5.3252 2.19927 5.818 2.19927 6.42483V23.5792C2.19927 24.186 1.70647 24.6788 1.09964 24.6788Z"></path>
<path fill="#FCFCFC" d="M10.312 29C9.7052 29 9.2124 28.5072 9.2124 27.9004V2.09964C9.2124 1.4928 9.7052 1 10.312 1C10.9189 1 11.4117 1.4928 11.4117 2.09964V27.9004C11.4117 28.5072 10.9189 29 10.312 29Z"></path>
<path fill="#FCFCFC" d="M19.5205 23.0172C18.9137 23.0172 18.4209 22.5244 18.4209 21.9176V8.08255C18.4209 7.47571 18.9137 6.98291 19.5205 6.98291C20.1274 6.98291 20.6202 7.47571 20.6202 8.08255V21.9135C20.6202 22.5204 20.1274 23.0132 19.5205 23.0132V23.0172Z"></path>
<path fill="#FCFCFC" d="M28.729 25.8641C28.1222 25.8641 27.6294 25.3713 27.6294 24.7644V5.23977C27.6294 4.63294 28.1222 4.14014 28.729 4.14014C29.3359 4.14014 29.8287 4.63294 29.8287 5.23977V24.7644C29.8287 25.3713 29.3359 25.8641 28.729 25.8641Z"></path>
</g>
<defs>
<clipPath id="clip0_1132_10173">
<rect transform="translate(0 1)" fill="white" height="28" width="29.8287"></rect>
</clipPath>
</defs>
</svg>
