
<svg xmlns="http://www.w3.org/2000/svg" fill="none" viewBox="0 0 30 30" height="30" width="30">
<g clip-path="url(#clip0_1132_10161)">
<path fill="#FCFCFC" d="M3.09945 5.1989C4.25894 5.1989 5.1989 4.25894 5.1989 3.09945C5.1989 1.93995 4.25894 1 3.09945 1C1.93995 1 1 1.93995 1 3.09945C1 4.25894 1.93995 5.1989 3.09945 5.1989Z"></path>
<path fill="#FCFCFC" d="M14.9979 5.1989C16.1574 5.1989 17.0973 4.25894 17.0973 3.09945C17.0973 1.93995 16.1574 1 14.9979 1C13.8384 1 12.8984 1.93995 12.8984 3.09945C12.8984 4.25894 13.8384 5.1989 14.9979 5.1989Z"></path>
<path fill="#FCFCFC" d="M26.9005 5.1989C28.06 5.1989 28.9999 4.25894 28.9999 3.09945C28.9999 1.93995 28.06 1 26.9005 1C25.741 1 24.801 1.93995 24.801 3.09945C24.801 4.25894 25.741 5.1989 26.9005 5.1989Z"></path>
<path fill="#FCFCFC" d="M3.09945 17.0973C4.25894 17.0973 5.1989 16.1574 5.1989 14.9979C5.1989 13.8384 4.25894 12.8984 3.09945 12.8984C1.93995 12.8984 1 13.8384 1 14.9979C1 16.1574 1.93995 17.0973 3.09945 17.0973Z"></path>
<path fill="#FCFCFC" d="M3.09945 29.0002C4.25894 29.0002 5.1989 28.0602 5.1989 26.9007C5.1989 25.7412 4.25894 24.8013 3.09945 24.8013C1.93995 24.8013 1 25.7412 1 26.9007C1 28.0602 1.93995 29.0002 3.09945 29.0002Z"></path>
<path fill="#FCFCFC" d="M14.9979 17.0973C16.1574 17.0973 17.0973 16.1574 17.0973 14.9979C17.0973 13.8384 16.1574 12.8984 14.9979 12.8984C13.8384 12.8984 12.8984 13.8384 12.8984 14.9979C12.8984 16.1574 13.8384 17.0973 14.9979 17.0973Z"></path>
<path fill="#FCFCFC" d="M14.9979 29.0002C16.1574 29.0002 17.0973 28.0602 17.0973 26.9007C17.0973 25.7412 16.1574 24.8013 14.9979 24.8013C13.8384 24.8013 12.8984 25.7412 12.8984 26.9007C12.8984 28.0602 13.8384 29.0002 14.9979 29.0002Z"></path>
<path fill="#FCFCFC" d="M26.9005 17.0973C28.06 17.0973 28.9999 16.1574 28.9999 14.9979C28.9999 13.8384 28.06 12.8984 26.9005 12.8984C25.741 12.8984 24.801 13.8384 24.801 14.9979C24.801 16.1574 25.741 17.0973 26.9005 17.0973Z"></path>
<path fill="#FCFCFC" d="M26.9005 29.0002C28.06 29.0002 28.9999 28.0602 28.9999 26.9007C28.9999 25.7412 28.06 24.8013 26.9005 24.8013C25.741 24.8013 24.801 25.7412 24.801 26.9007C24.801 28.0602 25.741 29.0002 26.9005 29.0002Z"></path>
</g>
<defs>
<clipPath id="clip0_1132_10161">
<rect transform="translate(1 1)" fill="white" height="28" width="28"></rect>
</clipPath>
</defs>
</svg>
