
<svg xmlns="http://www.w3.org/2000/svg" fill="none" viewBox="0 0 30 30" height="30" width="30">
<g clip-path="url(#clip0_1132_10190)">
<path fill="#FCFCFC" d="M1.10429 29.0001C0.494888 29.0001 0 28.5052 0 27.8958V16.9388C0 16.3294 0.494888 15.8345 1.10429 15.8345C1.7137 15.8345 2.20859 16.3294 2.20859 16.9388V27.8958C2.20859 28.5052 1.7137 29.0001 1.10429 29.0001Z"></path>
<path fill="#FCFCFC" d="M10.3558 29.0001C9.74635 29.0001 9.25146 28.5052 9.25146 27.8958V11.9939C9.25146 11.3845 9.74635 10.8896 10.3558 10.8896C10.9652 10.8896 11.4601 11.3845 11.4601 11.9939V27.8958C11.4601 28.5052 10.9652 29.0001 10.3558 29.0001Z"></path>
<path fill="#FCFCFC" d="M19.6033 29C18.9939 29 18.499 28.5052 18.499 27.8957V7.04912C18.499 6.43971 18.9939 5.94482 19.6033 5.94482C20.2127 5.94482 20.7076 6.43971 20.7076 7.04912V27.8957C20.7076 28.5052 20.2127 29 19.6033 29Z"></path>
<path fill="#FCFCFC" d="M28.8506 29C28.2412 29 27.7463 28.5051 27.7463 27.8957V2.10429C27.7463 1.49489 28.2412 1 28.8506 1C29.46 1 29.9549 1.49489 29.9549 2.10429V27.8957C29.9549 28.5051 29.46 29 28.8506 29Z"></path>
</g>
<defs>
<clipPath id="clip0_1132_10190">
<rect transform="translate(0 1)" fill="white" height="28" width="29.955"></rect>
</clipPath>
</defs>
</svg>
